<?xml version="1.0" standalone="no"?>
<!DOCTYPE svg PUBLIC "-//W3C//DTD SVG 20010904//EN"
 "http://www.w3.org/TR/2001/REC-SVG-20010904/DTD/svg10.dtd">
<svg version="1.0" xmlns="http://www.w3.org/2000/svg"
 width="512.000000pt" height="512.000000pt" viewBox="0 0 512.000000 512.000000"
 preserveAspectRatio="xMidYMid meet">

<g transform="translate(0.000000,512.000000) scale(0.100000,-0.100000)"
fill="#000000" stroke="none">
<path d="M880 5105 c-456 -80 -801 -434 -869 -892 -15 -100 -15 -3206 0 -3306
70 -467 429 -826 896 -896 100 -15 3206 -15 3306 0 467 70 826 429 896 896 15
100 15 3206 0 3306 -70 467 -429 826 -896 896 -114 17 -3235 13 -3333 -4z
m2376 -722 c17 -66 -27 -265 -84 -378 -30 -61 -117 -179 -163 -221 -109 -101
-245 -163 -376 -171 l-83 -6 0 70 c0 156 75 336 201 481 90 104 239 195 380
231 103 27 117 27 125 -6z m192 -842 c147 -43 293 -135 383 -243 27 -32 49
-63 49 -68 0 -5 -9 -14 -20 -20 -48 -26 -145 -117 -194 -183 -113 -151 -151
-268 -151 -462 1 -150 15 -216 75 -340 64 -132 196 -267 336 -342 l53 -28 -40
-95 c-141 -338 -328 -617 -493 -735 -99 -70 -154 -88 -261 -83 -76 4 -116 13
-265 63 -266 88 -330 87 -623 -11 -195 -65 -233 -71 -317 -50 -82 21 -149 60
-237 138 -269 239 -503 708 -579 1163 -23 140 -23 389 0 520 69 382 287 657
606 765 44 15 100 24 176 27 135 7 209 -7 404 -78 224 -80 248 -82 400 -19 85
35 221 80 290 96 84 20 316 11 408 -15z"/>
</g>
</svg>
