<?xml version="1.0" standalone="no"?>
<!DOCTYPE svg PUBLIC "-//W3C//DTD SVG 20010904//EN"
 "http://www.w3.org/TR/2001/REC-SVG-20010904/DTD/svg10.dtd">
<svg version="1.0" xmlns="http://www.w3.org/2000/svg"
 width="512.000000pt" height="512.000000pt" viewBox="0 0 512.000000 512.000000"
 preserveAspectRatio="xMidYMid meet">

<g transform="translate(0.000000,512.000000) scale(0.100000,-0.100000)"
fill="#000000" stroke="none">
<path d="M2315 5109 c-800 -83 -1501 -518 -1927 -1196 -487 -774 -516 -1777
-75 -2578 200 -364 487 -676 841 -913 238 -159 600 -311 876 -366 214 -43 295
-51 530 -51 236 0 333 10 532 51 880 184 1615 842 1898 1702 92 278 125 491
125 802 0 301 -32 513 -116 775 -124 390 -330 728 -622 1024 -399 404 -893
653 -1462 737 -123 18 -478 26 -600 13z m420 -1184 c238 -16 493 -120 703
-288 34 -28 62 -55 62 -61 0 -6 -85 -96 -189 -200 l-189 -189 -47 40 c-60 53
-182 117 -273 142 -442 122 -904 -159 -1013 -617 -18 -72 -20 -110 -17 -222 4
-120 8 -146 37 -230 18 -52 44 -115 58 -140 174 -305 495 -472 828 -430 165
20 285 66 402 154 101 76 194 215 226 339 l15 57 -374 0 -374 0 0 270 0 270
644 0 c605 0 645 -1 650 -17 3 -10 10 -70 17 -133 46 -466 -129 -932 -449
-1193 -206 -169 -466 -268 -752 -286 -430 -27 -791 107 -1085 403 -200 202
-317 419 -376 699 -18 81 -22 136 -22 267 0 185 18 299 74 457 156 441 532
777 989 883 97 22 263 39 335 34 22 -2 76 -6 120 -9z"/>
</g>
</svg>
